<svg width="1491" height="732" viewBox="0 0 1491 732" fill="none" xmlns="http://www.w3.org/2000/svg">
<path d="M390 732C334 732 282 723.333 234 706C186.667 688 145.333 662.667 110 630C75.3333 597.333 48.3333 558.667 29 514C9.66667 469.333 1.02818e-06 420 1.02818e-06 366C1.02818e-06 312 9.66667 262.667 29 218C48.3333 173.333 75.3333 134.667 110 102C145.333 69.3333 186.667 44.3333 234 27C282 8.99998 334 -2.0504e-05 390 -2.0504e-05C458.667 -2.0504e-05 519.333 12 572 36C625.333 60 669.333 94.6666 704 140L555 273C534.333 247 511.333 227 486 213C461.333 198.333 433.333 191 402 191C377.333 191 355 195 335 203C315 211 297.667 222.667 283 238C269 253.333 258 272 250 294C242 315.333 238 339.333 238 366C238 392.667 242 417 250 439C258 460.333 269 478.667 283 494C297.667 509.333 315 521 335 529C355 537 377.333 541 402 541C433.333 541 461.333 534 486 520C511.333 505.333 534.333 485 555 459L704 592C669.333 636.667 625.333 671.333 572 696C519.333 720 458.667 732 390 732ZM962.141 716L666.141 16H920.141L1161.14 607H1010.14L1258.14 16H1490.14L1194.14 716H962.141Z" fill="#F4FFFF"/>
</svg>
